# xmcd CD database file
#
# Track frame offsets:
#	150
#	21108
#	43322
#	67681
#	88896
#	111200
#	131380
#	147211
#	169678
#	190109
#
# Disc length: 2796 seconds
#
# Revision: 0
# Processed by: cddbd v1.5.1PL0 Copyright (c) Steve Scherf et al.
# Submitted via: CDex 1.51
#
DISCID=830aea0a
DTITLE=Ubud  - Ubud Due
DYEAR=2004
DGENRE=New Age
TTITLE0=Sea Breeze
TTITLE1=Circulation Of The Ocean
TTITLE2=Lighthouse
TTITLE3=Nagi
TTITLE4=Peacefull Noon
TTITLE5=Nusa
TTITLE6=Dreaming
TTITLE7=Turtle Walk
TTITLE8=Kupa Kupa
TTITLE9=Andaman Sea
EXTD=YEAR: 2004
EXTT0=
EXTT1=
EXTT2=
EXTT3=
EXTT4=
EXTT5=
EXTT6=
EXTT7=
EXTT8=
EXTT9=
PLAYORDER=
